<svg width="88" height="88" viewBox="0 0 88 88" fill="none" xmlns="http://www.w3.org/2000/svg">
<path d="M44 56.5H25.25C23.5234 56.5 22.125 55.1016 22.125 53.375V34.625C22.125 32.8984 23.5234 31.5 25.25 31.5H44C45.7266 31.5 47.125 32.8984 47.125 34.625V53.375C47.125 55.1016 45.7266 56.5 44 56.5Z" fill="#FAB400"/>
<path d="M45.5625 40.875C43.8359 40.875 42.4375 42.2734 42.4375 44V56.5H44C45.7266 56.5 47.125 55.1016 47.125 53.375V40.875H45.5625Z" fill="#DC9600"/>
<path d="M25.25 31.5C23.5234 31.5 22.125 32.8984 22.125 34.625V47.125H23.6875C25.4141 47.125 26.8125 45.7266 26.8125 44V31.5H25.25Z" fill="#DC9600"/>
<path d="M84.625 47.125H65.875C64.1484 47.125 62.75 45.7266 62.75 44V25.25C62.75 23.5234 64.1484 22.125 65.875 22.125H84.625C86.3516 22.125 87.75 23.5234 87.75 25.25V44C87.75 45.7266 86.3516 47.125 84.625 47.125Z" fill="#00A0C8"/>
<path d="M67.4375 40.875H62.75V44C62.75 45.7266 64.1484 47.125 65.875 47.125H70.5625V44C70.5625 42.2734 69.1641 40.875 67.4375 40.875Z" fill="#0082AA"/>
<path d="M81.5 42.4375C80.6359 42.4375 79.9375 41.7375 79.9375 40.875V32.1469L76.3547 35.7297C75.7438 36.3407 74.7562 36.3407 74.1453 35.7297L70.5625 32.1469V40.875C70.5625 41.7375 69.8641 42.4375 69 42.4375C68.1359 42.4375 67.4375 41.7375 67.4375 40.875V28.375C67.4375 27.7438 67.8172 27.1735 68.4016 26.9313C68.9875 26.6891 69.6578 26.8235 70.1047 27.2703L75.25 32.4157L80.3953 27.2703C80.8422 26.8219 81.5141 26.6891 82.0984 26.9313C82.6828 27.1735 83.0625 27.7438 83.0625 28.375V40.875C83.0625 41.7375 82.3641 42.4375 81.5 42.4375Z" fill="#00648C"/>
<path d="M65.875 65.875H47.125C45.3984 65.875 44 64.4766 44 62.75V44C44 42.2734 45.3984 40.875 47.125 40.875H65.875C67.6016 40.875 69 42.2734 69 44V62.75C69 64.4766 67.6016 65.875 65.875 65.875Z" fill="#C80A50"/>
<path d="M51.8125 40.875V47.125C51.8125 48.8516 53.2109 50.25 54.9375 50.25C56.6641 50.25 58.0625 48.8516 58.0625 47.125V40.875H51.8125Z" fill="#A00028"/>
<path d="M64.1482 58.9266L57.8982 46.4266C57.3669 45.3672 55.6341 45.3672 55.1029 46.4266L48.8529 58.9266C48.4669 59.6984 48.7794 60.6375 49.5513 61.0234C50.3232 61.4109 51.2623 61.0969 51.6482 60.325L52.8279 57.9656C52.9982 58.0281 53.1826 58.0625 53.3748 58.0625H59.6248C59.8169 58.0625 60.0013 58.0281 60.1716 57.964L61.3513 60.3234C61.6263 60.8719 62.1779 61.1875 62.7513 61.1875C62.9857 61.1875 63.2248 61.1344 63.4482 61.0234C64.2201 60.6359 64.5341 59.6984 64.1482 58.9266ZM54.3404 54.9375L56.4998 50.6187L58.6591 54.9375H54.3404Z" fill="#FAB400"/>
<path d="M22.125 47.125H3.375C1.64844 47.125 0.25 45.7266 0.25 44V25.25C0.25 23.5234 1.64844 22.125 3.375 22.125H22.125C23.8516 22.125 25.25 23.5234 25.25 25.25V44C25.25 45.7266 23.8516 47.125 22.125 47.125Z" fill="#0A5078"/>
<path d="M11.1875 37.75C9.46094 37.75 8.0625 39.1484 8.0625 40.875V47.125H14.3125V40.875C14.3125 39.1484 12.9141 37.75 11.1875 37.75Z" fill="#00325A"/>
<path d="M19 26.8125H6.5C5.63594 26.8125 4.9375 27.5125 4.9375 28.375C4.9375 29.2375 5.63594 29.9375 6.5 29.9375H11.1875V40.875C11.1875 41.7375 11.8859 42.4375 12.75 42.4375C13.6141 42.4375 14.3125 41.7375 14.3125 40.875V29.9375H19C19.8641 29.9375 20.5625 29.2375 20.5625 28.375C20.5625 27.5125 19.8641 26.8125 19 26.8125Z" fill="#00A0C8"/>
<path d="M31.5 59.625C29.7734 59.625 28.375 61.0234 28.375 62.75V61.1875C28.375 59.4609 26.9766 58.0625 25.25 58.0625C23.5234 58.0625 22.125 59.4609 22.125 61.1875V59.625C22.125 57.8984 20.7266 56.5 19 56.5C17.2734 56.5 15.875 57.8984 15.875 59.625V40.875C15.875 39.1484 14.4766 37.75 12.75 37.75C11.0234 37.75 9.625 39.1484 9.625 40.875V62.75H6.5C4.77344 62.75 3.375 64.1484 3.375 65.875V75.25C3.375 78.7016 6.17344 81.5 9.625 81.5V87.75H31.5V81.5C33.2266 81.5 34.625 80.1016 34.625 78.375V62.75C34.625 61.0234 33.2266 59.625 31.5 59.625Z" fill="#F0C8A0"/>
<path d="M17.4375 59.625V62.75H15.875V59.625C15.875 57.8984 17.2734 56.5 19 56.5C19.2703 56.5 19.5312 56.5344 19.7812 56.5984C18.4328 56.9453 17.4375 58.1688 17.4375 59.625Z" fill="#D2AA82"/>
<path d="M23.6875 62.75V61.1875C23.6875 59.7313 24.6828 58.5078 26.0312 58.1609C25.7812 58.0969 25.5203 58.0625 25.25 58.0625C23.5234 58.0625 22.125 59.4609 22.125 61.1875V62.75H23.6875Z" fill="#D2AA82"/>
<path d="M29.9375 62.75V65.875H28.375V62.75C28.375 61.0234 29.7734 59.625 31.5 59.625C31.7703 59.625 32.0312 59.6594 32.2812 59.7234C30.9328 60.0703 29.9375 61.2938 29.9375 62.75Z" fill="#D2AA82"/>
<path d="M4.9375 65.875V75.25C4.9375 78.1625 6.92969 80.6094 9.625 81.3031V81.5C6.17344 81.5 3.375 78.7016 3.375 75.25V65.875C3.375 64.1484 4.77344 62.75 6.5 62.75H8.0625C6.33594 62.75 4.9375 64.1484 4.9375 65.875Z" fill="#D2AA82"/>
<path d="M11.1875 40.875V75.25H9.625V40.875C9.625 39.1484 11.0234 37.75 12.75 37.75C13.0203 37.75 13.2812 37.7844 13.5312 37.8484C12.1828 38.1953 11.1875 39.4188 11.1875 40.875Z" fill="#D2AA82"/>
<path d="M59.625 6.5V0.25H37.75V6.5C36.0234 6.5 34.625 7.89844 34.625 9.625V25.25C34.625 26.9766 36.0234 28.375 37.75 28.375C39.4766 28.375 40.875 26.9766 40.875 25.25V26.8125C40.875 28.5391 42.2734 29.9375 44 29.9375C45.7266 29.9375 47.125 28.5391 47.125 26.8125V28.375C47.125 30.1016 48.5234 31.5 50.25 31.5C51.9766 31.5 53.375 30.1016 53.375 28.375V47.125C53.375 48.8516 54.7734 50.25 56.5 50.25C58.2266 50.25 59.625 48.8516 59.625 47.125V25.25H62.75C64.4766 25.25 65.875 23.8516 65.875 22.125V12.75C65.875 9.29844 63.0766 6.5 59.625 6.5Z" fill="#F0C8A0"/>
<path d="M48.6875 28.375V25.25H47.125V28.375C47.125 30.1016 48.5234 31.5 50.25 31.5C50.5203 31.5 50.7812 31.4656 51.0312 31.4016C49.6828 31.0547 48.6875 29.8313 48.6875 28.375Z" fill="#D2AA82"/>
<path d="M42.4375 26.8125V25.25H40.875V26.8125C40.875 28.5391 42.2734 29.9375 44 29.9375C44.2703 29.9375 44.5312 29.9031 44.7812 29.8391C43.4328 29.4922 42.4375 28.2687 42.4375 26.8125Z" fill="#D2AA82"/>
<path d="M36.1875 25.25V9.625C36.1875 8.46875 36.8156 7.45937 37.75 6.91875V6.5C36.0234 6.5 34.625 7.89844 34.625 9.625V25.25C34.625 26.9766 36.0234 28.375 37.75 28.375C38.0203 28.375 38.2812 28.3406 38.5312 28.2766C37.1828 27.9297 36.1875 26.7062 36.1875 25.25Z" fill="#D2AA82"/>
<path d="M54.9375 47.125V25.25H53.375V47.125C53.375 48.8516 54.7734 50.25 56.5 50.25C56.7703 50.25 57.0312 50.2156 57.2812 50.1516C55.9328 49.8047 54.9375 48.5812 54.9375 47.125Z" fill="#D2AA82"/>
<path d="M59.625 12.75H61.1875V25.25H59.625V12.75Z" fill="#D2AA82"/>
<path d="M39.3125 48.6875H31.5V45.5625H34.625C35.4891 45.5625 36.1875 44.8625 36.1875 44C36.1875 43.1375 35.4891 42.4375 34.625 42.4375H31.5V39.3125H39.3125C40.1766 39.3125 40.875 38.6125 40.875 37.75C40.875 36.8875 40.1766 36.1875 39.3125 36.1875H29.9375C29.0734 36.1875 28.375 36.8875 28.375 37.75V50.25C28.375 51.1125 29.0734 51.8125 29.9375 51.8125H39.3125C40.1766 51.8125 40.875 51.1125 40.875 50.25C40.875 49.3875 40.1766 48.6875 39.3125 48.6875Z" fill="#BE7800"/>
</svg>
