<svg width="53" height="53" viewBox="0 0 53 53" fill="none" xmlns="http://www.w3.org/2000/svg">
<path d="M45.034 24.3096C44.3714 24.5392 43.8271 25.0226 43.5208 25.6535C43.2145 26.2843 43.1713 27.011 43.4006 27.6737L44.1303 29.7823C44.6887 31.4021 44.5821 33.1773 43.8338 34.7186C43.0855 36.2599 41.7566 37.4417 40.1384 38.0048L23.1281 43.8911C21.5077 44.4498 19.7318 44.3429 18.1901 43.5938C16.6484 42.8448 15.4668 41.5149 14.9044 39.8958L14.1747 37.7872C14.0728 37.445 13.9026 37.1271 13.6744 36.8525C13.4463 36.5778 13.1649 36.3523 12.8472 36.1893C12.5296 36.0263 12.1822 35.9294 11.826 35.9042C11.4699 35.8791 11.1124 35.9264 10.775 36.0431C10.4376 36.1599 10.1273 36.3437 9.86286 36.5836C9.59842 36.8235 9.38528 37.1144 9.23628 37.4388C9.08728 37.7633 9.0055 38.1145 8.99589 38.4714C8.98627 38.8283 9.04901 39.1835 9.18032 39.5155L9.90998 41.6241C10.933 44.5662 13.0807 46.9826 15.8824 48.3438C18.6842 49.705 21.9113 49.8998 24.8564 48.8855L41.8667 42.9992C44.8088 41.9762 47.2253 39.8285 48.5865 37.0267C49.9476 34.225 50.1425 30.9979 49.1282 28.0528L48.3986 25.9442C48.285 25.616 48.1078 25.3133 47.8773 25.0535C47.6467 24.7937 47.3672 24.5819 47.0548 24.4301C46.7424 24.2783 46.4031 24.1895 46.0564 24.1689C45.7097 24.1482 45.3623 24.196 45.034 24.3096Z" fill="white"/>
<path d="M27.3863 34.4121L27.4177 34.4264L27.465 34.4484C27.5087 34.4676 27.5532 34.4853 27.5961 34.5022L27.6239 34.5138C27.6799 34.5341 27.7366 34.5528 27.7925 34.5692L27.8175 34.5764C27.8746 34.5923 27.9325 34.6067 27.99 34.6199C28.0542 34.6334 28.1175 34.6445 28.1829 34.6536C28.4572 34.6898 28.7355 34.6828 29.0076 34.6328L29.0301 34.625L29.0991 34.6104L29.1571 34.5983L29.1748 34.5921C29.248 34.5668 29.3261 34.5517 29.4005 34.5259L29.5128 34.4871L29.5269 34.4822L29.5683 34.4679L29.6466 34.4342L29.6572 34.4305C30.1662 34.194 30.5864 33.8012 30.8564 33.3092C30.8785 33.2698 30.899 33.2296 30.9183 33.1899L34.7716 25.2587C35.0634 24.6298 35.0966 23.9114 34.864 23.2583C34.6314 22.6051 34.1517 22.0694 33.5281 21.7664C32.9045 21.4634 32.1868 21.4174 31.5296 21.6383C30.8724 21.8592 30.3282 22.3293 30.0141 22.9474L28.9579 25.1317L23.4096 9.09827C23.1802 8.43534 22.6968 7.89069 22.0659 7.58414C21.4349 7.2776 20.708 7.23426 20.045 7.46366C19.3821 7.69306 18.8375 8.17642 18.5309 8.80739C18.2244 9.43836 18.181 10.1653 18.4104 10.8282L23.9587 26.8616L21.8296 25.8272C21.2007 25.5354 20.4824 25.5022 19.8292 25.7348C19.176 25.9674 18.6403 26.4471 18.3373 27.0707C18.0344 27.6943 17.9884 28.412 18.2092 29.0692C18.4301 29.7264 18.9002 30.2706 19.5183 30.5846L27.3863 34.4121Z" fill="white"/>
</svg>
